


TITLE:

The Vow 2012 R5 LiNE XViD - INSPiRAL

IMDB:
 
http://www.imdb.com/title/tt1606389/


SOURCES:

VIDEO -  Lum1x      THANKS
AUDIO -  Riplegendz THANKS
SUBS  - None Add

STATS:

Video
ID                                       : 0
Format                                   : MPEG-4 Visual
Format profile                           : Advanced Simple@L5
Format settings, BVOP                    : 2
Format settings, QPel                    : No
Format settings, GMC                     : No warppoints
Format settings, Matrix                  : Default (MPEG)
Codec ID                                 : XVID
Codec ID/Hint                            : XviD
Duration                                 : 1h 39mn
Bit rate                                 : 1 568 Kbps
Width                                    : 720 pixels
Height                                   : 304 pixels
Display aspect ratio                     : 2.35:1
Frame rate                               : 25.000 fps
Color space                              : YUV
Chroma subsampling                       : 4:2:0
Bit depth                                : 8 bits
Scan type                                : Progressive
Compression mode                         : Lossy
Bits/(Pixel*Frame)                       : 0.287
Stream size                              : 1.09 GiB (92%)
Writing library                          : XviD 1.2.1 (UTC 2008-12-04)

Audio
ID                                       : 1
Format                                   : MPEG Audio
Format version                           : Version 1
Format profile                           : Layer 3
Mode                                     : Joint stereo
Mode extension                           : MS Stereo
Codec ID                                 : 55
Codec ID/Hint                            : MP3
Duration                                 : 1h 39mn
Bit rate mode                            : Constant
Bit rate                                 : 128 Kbps
Channel(s)                               : 2 channels
Sampling rate                            : 44.1 KHz
Compression mode                         : Lossy
Stream size                              : 91.1 MiB (7%)
Alignment                                : Split accross interleaves
Interleave, duration                     : 40 ms (1.00 video frame)
Interleave, preload duration             : 500 ms




NOTES:

Ok folks here a nice R5 this time of the vow and for once Line audio
The video wasn't ripped by us so credit too lum1x for sending it us ....would have ripped from the dvd-r ourselfs,but theres a wait time on it at the time of doing this.
The video we haven't re-encoded it ...just syncd some sweet line audio to it
Audio has a few static noise a couple of times but last like 1 secs ....but otherwise after some lovin in AA its came out nice and in sync with 1 cut .....not 174 like some who butcher the bloody things

Enjoy folks .....oh best part is the end sound track IMHO 

